# xmcd CD database file
#
# Track frame offsets:
#	150
#	29472
#	59705
#	87615
#	110682
#	135447
#	152035
#	186782
#
# Disc length: 3114 seconds
#
# Revision: 0
# Processed by: cddbd v1.5PL3 Copyright (c) Steve Scherf et al.
# Submitted via: CDex 1.51
#
DISCID=6f0c2808
DTITLE=Tim Richards's Spirit Level - New Year
DYEAR=1990
DGENRE=Jazz
TTITLE0=New Year
TTITLE1=Chin Up!
TTITLE2=In Search of the Sixth Sense
TTITLE3=Dedication
TTITLE4=La Dolce Vita
TTITLE5=Hoffmann I
TTITLE6=Seashore
TTITLE7=Between the Devil and the Deep Blue Sea
EXTD=YEAR: 1990
EXTT0=
EXTT1=
EXTT2=
EXTT3=
EXTT4=
EXTT5=
EXTT6=
EXTT7=
PLAYORDER=
